REM DIRINDEX 1\2\6,1\2\7,1\2\8,1\2\9,1\3\10,1\3\11,1\4\12,1\4\13,1\4\14,1\5\15,1\5\16,1\5\17
REM DIRNAME folder01,folder02,folder03,folder04,folder05,folder06,folder07,folder08,folder09,folder10,folder11,folder12,folder13,folder14,folder15,folder16,folder17
TITLE ""
FILE "1400_3_sec12_1150_1166.mp3" MP3
  TRACK 01 AUDIO
    TITLE "0:"
    INDEX 01 00:00:00
  TRACK 02 AUDIO
    TITLE "17:cjc029_6739"
    INDEX 01 00:00:17
  TRACK 03 AUDIO
    TITLE "0:"
    INDEX 01 00:01:40
  TRACK 04 AUDIO
    TITLE "16:cjc029_6740"
    INDEX 01 00:01:46
  TRACK 05 AUDIO
    TITLE "0:"
    INDEX 01 00:02:53
  TRACK 06 AUDIO
    TITLE "17:cjc029_6741"
    INDEX 01 00:03:41
  TRACK 07 AUDIO
    TITLE "0:"
    INDEX 01 00:04:54
  TRACK 08 AUDIO
    TITLE "16:cjc029_6742"
    INDEX 01 00:04:60
  TRACK 09 AUDIO
    TITLE "0:"
    INDEX 01 00:06:08
  TRACK 10 AUDIO
    TITLE "17:cjc029_6743"
    INDEX 01 00:06:69
  TRACK 11 AUDIO
    TITLE "0:"
    INDEX 01 00:07:72
  TRACK 12 AUDIO
    TITLE "16:cjc029_6744"
    INDEX 01 00:08:03
  TRACK 13 AUDIO
    TITLE "0:"
    INDEX 01 00:09:38
  TRACK 14 AUDIO
    TITLE "17:cjc029_6745"
    INDEX 01 00:10:25
  TRACK 15 AUDIO
    TITLE "0:"
    INDEX 01 00:12:03
  TRACK 16 AUDIO
    TITLE "16:cjc029_6746"
    INDEX 01 00:12:09
  TRACK 17 AUDIO
    TITLE "0:"
    INDEX 01 00:13:45
  TRACK 18 AUDIO
    TITLE "17:cjc029_6747"
    INDEX 01 00:14:35
  TRACK 19 AUDIO
    TITLE "0:"
    INDEX 01 00:15:42
  TRACK 20 AUDIO
    TITLE "16:cjc029_6748"
    INDEX 01 00:15:44
  TRACK 21 AUDIO
    TITLE "0:"
    INDEX 01 00:16:73
  TRACK 22 AUDIO
    TITLE "17:cjc029_6749"
    INDEX 01 00:17:59
  TRACK 23 AUDIO
    TITLE "0:"
    INDEX 01 00:20:37
  TRACK 24 AUDIO
    TITLE "16:cjc029_6750"
    INDEX 01 00:20:43
  TRACK 25 AUDIO
    TITLE "0:"
    INDEX 01 00:22:23
  TRACK 26 AUDIO
    TITLE "17:cjc029_6751"
    INDEX 01 00:23:06
  TRACK 27 AUDIO
    TITLE "0:"
    INDEX 01 00:25:46
  TRACK 28 AUDIO
    TITLE "16:cjc029_6752"
    INDEX 01 00:25:52
  TRACK 29 AUDIO
    TITLE "0:"
    INDEX 01 00:26:62
  TRACK 30 AUDIO
    TITLE "17:cjc029_6753"
    INDEX 01 00:27:47
  TRACK 31 AUDIO
    TITLE "0:"
    INDEX 01 00:28:62
  TRACK 32 AUDIO
    TITLE "16:cjc029_6754"
    INDEX 01 00:28:68
  TRACK 33 AUDIO
    TITLE "0:"
    INDEX 01 00:30:14
  TRACK 34 AUDIO
    TITLE "17:cjc029_6755"
    INDEX 01 00:30:71
  TRACK 35 AUDIO
    TITLE "0:"
    INDEX 01 00:33:15
  TRACK 36 AUDIO
    TITLE "16:cjc029_6756"
    INDEX 01 00:33:21
  TRACK 37 AUDIO
    TITLE "0:"
    INDEX 01 00:34:42
  TRACK 38 AUDIO
    TITLE "17:cjc029_6757"
    INDEX 01 00:35:27
  TRACK 39 AUDIO
    TITLE "0:"
    INDEX 01 00:36:42
  TRACK 40 AUDIO
    TITLE "16:cjc029_6758"
    INDEX 01 00:36:48
  TRACK 41 AUDIO
    TITLE "0:"
    INDEX 01 00:38:08
  TRACK 42 AUDIO
    TITLE "17:cjc029_6759"
    INDEX 01 00:38:71
  TRACK 43 AUDIO
    TITLE "0:"
    INDEX 01 00:41:26
  TRACK 44 AUDIO
    TITLE "16:cjc029_6760"
    INDEX 01 00:41:40
  TRACK 45 AUDIO
    TITLE "0:"
    INDEX 01 00:42:55
  TRACK 46 AUDIO
    TITLE "17:cjc029_6761"
    INDEX 01 00:43:39
  TRACK 47 AUDIO
    TITLE "0:"
    INDEX 01 00:44:40
  TRACK 48 AUDIO
    TITLE "16:cjc029_6762"
    INDEX 01 00:44:46
  TRACK 49 AUDIO
    TITLE "0:"
    INDEX 01 00:45:49
  TRACK 50 AUDIO
    TITLE "17:cjc029_6763"
    INDEX 01 00:46:35
  TRACK 51 AUDIO
    TITLE "0:"
    INDEX 01 00:47:50
  TRACK 52 AUDIO
    TITLE "16:cjc029_6764"
    INDEX 01 00:47:54
  TRACK 53 AUDIO
    TITLE "0:"
    INDEX 01 00:49:08
  TRACK 54 AUDIO
    TITLE "17:cjc029_6765"
    INDEX 01 00:49:69
  TRACK 55 AUDIO
    TITLE "0:"
    INDEX 01 00:50:68
  TRACK 56 AUDIO
    TITLE "16:cjc029_6766"
    INDEX 01 00:50:72
  TRACK 57 AUDIO
    TITLE "0:"
    INDEX 01 00:52:14
  TRACK 58 AUDIO
    TITLE "17:cjc029_6767"
    INDEX 01 00:52:73
  TRACK 59 AUDIO
    TITLE "0:"
    INDEX 01 00:54:34
  TRACK 60 AUDIO
    TITLE "16:cjc029_6768"
    INDEX 01 00:54:38
  TRACK 61 AUDIO
    TITLE "0:"
    INDEX 01 00:56:00
  TRACK 62 AUDIO
    TITLE "17:cjc029_6769"
    INDEX 01 00:56:59
  TRACK 63 AUDIO
    TITLE "0:"
    INDEX 01 00:57:60
  TRACK 64 AUDIO
    TITLE "16:cjc029_6770"
    INDEX 01 00:57:70
  TRACK 65 AUDIO
    TITLE "0:"
    INDEX 01 00:59:16
  TRACK 66 AUDIO
    TITLE "17:cjc029_6771"
    INDEX 01 01:00:00
  TRACK 67 AUDIO
    TITLE "0:"
    INDEX 01 01:01:03
  TRACK 68 AUDIO
    TITLE "16:cjc029_6772"
    INDEX 01 01:01:05
  TRACK 69 AUDIO
    TITLE "0:"
    INDEX 01 01:02:30
